<?xml version="1.0" encoding="utf-8"?>
<!-- Generator: Adobe Illustrator 18.1.1, SVG Export Plug-In . SVG Version: 6.00 Build 0)  -->
<!DOCTYPE svg PUBLIC "-//W3C//DTD SVG 1.1//EN" "http://www.w3.org/Graphics/SVG/1.1/DTD/svg11.dtd">
<svg version="1.1" id="Layer_1" xmlns="http://www.w3.org/2000/svg" xmlns:xlink="http://www.w3.org/1999/xlink" x="0px" y="0px"
	 viewBox="0 0 280 280" enable-background="new 0 0 280 280" xml:space="preserve">
<line fill="none" stroke="#45AAF3" stroke-width="4" stroke-miterlimit="10" x1="-80.9" y1="263.9" x2="255" y2="473.6"/>
<line fill="none" stroke="#45AAF3" stroke-width="4" stroke-miterlimit="10" x1="-75.9" y1="240.9" x2="260" y2="450.6"/>
<line fill="none" stroke="#45AAF3" stroke-width="4" stroke-miterlimit="10" x1="-70.9" y1="217.9" x2="265" y2="427.6"/>
<line fill="none" stroke="#45AAF3" stroke-width="4" stroke-miterlimit="10" x1="-65.9" y1="194.9" x2="270" y2="404.6"/>
<line fill="none" stroke="#45AAF3" stroke-width="4" stroke-miterlimit="10" x1="-60.9" y1="171.9" x2="275" y2="381.6"/>
<line fill="none" stroke="#45AAF3" stroke-width="4" stroke-miterlimit="10" x1="-55.9" y1="148.9" x2="280" y2="358.6"/>
<line fill="none" stroke="#45AAF3" stroke-width="4" stroke-miterlimit="10" x1="-50.9" y1="125.9" x2="285" y2="335.6"/>
<line fill="none" stroke="#45AAF3" stroke-width="4" stroke-miterlimit="10" x1="-45.9" y1="102.9" x2="290" y2="312.6"/>
<line fill="none" stroke="#45AAF3" stroke-width="4" stroke-miterlimit="10" x1="-30.9" y1="33.9" x2="305" y2="243.6"/>
<line fill="none" stroke="#45AAF3" stroke-width="4" stroke-miterlimit="10" x1="-40.9" y1="79.9" x2="295" y2="289.6"/>
<line fill="none" stroke="#45AAF3" stroke-width="4" stroke-miterlimit="10" x1="-35.9" y1="56.9" x2="300" y2="266.6"/>
<line fill="none" stroke="#45AAF3" stroke-width="4" stroke-miterlimit="10" x1="-25.9" y1="10.9" x2="310" y2="220.6"/>
<line fill="none" stroke="#45AAF3" stroke-width="4" stroke-miterlimit="10" x1="-20.9" y1="-12.1" x2="315" y2="197.6"/>
<line fill="none" stroke="#45AAF3" stroke-width="4" stroke-miterlimit="10" x1="-15.9" y1="-35.1" x2="320" y2="174.6"/>
<line fill="none" stroke="#45AAF3" stroke-width="4" stroke-miterlimit="10" x1="-10.9" y1="-58.1" x2="325" y2="151.6"/>
<line fill="none" stroke="#45AAF3" stroke-width="4" stroke-miterlimit="10" x1="-5.9" y1="-81.1" x2="330" y2="128.6"/>
<line fill="none" stroke="#45AAF3" stroke-width="4" stroke-miterlimit="10" x1="-0.9" y1="-104.1" x2="335" y2="105.6"/>
<line fill="none" stroke="#45AAF3" stroke-width="4" stroke-miterlimit="10" x1="4.1" y1="-127.1" x2="340" y2="82.6"/>
<line fill="none" stroke="#45AAF3" stroke-width="4" stroke-miterlimit="10" x1="9.1" y1="-150.1" x2="345" y2="59.6"/>
<line fill="none" stroke="#45AAF3" stroke-width="4" stroke-miterlimit="10" x1="14.1" y1="-173.1" x2="350" y2="36.6"/>
<line fill="none" stroke="#45AAF3" stroke-width="4" stroke-miterlimit="10" x1="19.1" y1="-196.1" x2="355" y2="13.6"/>
</svg>
