<?xml version="1.0" encoding="UTF-8" standalone="no"?>
<svg width="281px" height="35px" viewBox="0 0 281 35" version="1.1" xmlns="http://www.w3.org/2000/svg" xmlns:xlink="http://www.w3.org/1999/xlink" xmlns:sketch="http://www.bohemiancoding.com/sketch/ns">
    <!-- Generator: Sketch 3.2.2 (9983) - http://www.bohemiancoding.com/sketch -->
    <title>Logo</title>
    <desc>Created with Sketch.</desc>
    <defs></defs>
    <g id="Page-1" stroke="none" stroke-width="1" fill="none" fill-rule="evenodd" sketch:type="MSPage">
        <g id="Homepage" sketch:type="MSArtboardGroup" transform="translate(-90.000000, -123.000000)">
            <g id="Header" sketch:type="MSLayerGroup" transform="translate(90.000000, 123.000000)">
                <g id="Logo" sketch:type="MSShapeGroup">
                    <path d="M4.65234586,20.5163636 C5.18899248,22.9557576 7.19085338,24.0333333 9.80119549,24.0333333 C11.6963609,24.0333333 13.6623045,23.4234848 15.4856353,22.3819697 L15.1644925,25.9 C13.5196917,26.8693939 11.5178308,27.335 9.22968797,27.335 C4.11675564,27.335 0.577845865,24.1043939 0.577845865,19.2234848 C0.577845865,14.7721212 3.6878609,11.0387879 8.51451128,11.0387879 C13.5196917,11.0387879 16.1300338,14.4136364 16.1300338,18.5765152 C16.1300338,19.1874242 16.0581992,19.9775758 15.9504474,20.5163636 L4.65234586,20.5163636 L4.65234586,20.5163636 Z M4.61748496,17.7874242 L12.2319511,17.7874242 C12.1611729,15.6333333 10.7667368,14.1983333 8.47859398,14.1983333 C6.76301504,14.1983333 5.0463797,15.2027273 4.61748496,17.7874242 L4.61748496,17.7874242 Z" id="Fill-1" fill="#393B3C"></path>
                    <path d="M32.1829511,13.6245455 C32.1829511,14.9513636 31.1455752,16.0639394 29.8578346,16.0639394 C28.6789023,16.0639394 27.891891,15.3830303 27.5696917,14.665 C26.462594,15.0595455 25.1748534,16.2792424 24.4596767,17.6431818 L24.4596767,23.8180303 L27.1767143,23.8180303 L27.1767143,27.0486364 L18.2385902,27.0486364 L18.2385902,23.8180303 L20.5626504,23.8180303 L20.5626504,14.6289394 L18.2385902,14.6289394 L18.2385902,11.3262121 L24.3170639,11.3262121 L24.3170639,14.880303 C25.6396654,12.7622727 27.2844662,11.0387879 29.2863271,11.0387879 C31.2163534,11.0387879 32.1829511,12.2234848 32.1829511,13.6245455" id="Fill-2" fill="#393B3C"></path>
                    <path d="M33.9978308,23.8180303 L36.3937256,23.8180303 L36.3937256,14.6289394 L33.9978308,14.6289394 L33.9978308,11.3262121 L40.2907519,11.3262121 L40.2907519,23.8180303 L42.614812,23.8180303 L42.614812,27.0486364 L33.9978308,27.0486364 L33.9978308,23.8180303 L33.9978308,23.8180303 Z M35.3563496,6.33712121 C35.3563496,4.90106061 36.6081729,3.75242424 38.002609,3.75242424 C39.3970451,3.75242424 40.5759774,4.90106061 40.5759774,6.33712121 C40.5759774,7.77318182 39.3252105,8.92181818 37.9307744,8.92181818 C36.5363383,8.92181818 35.3563496,7.77318182 35.3563496,6.33712121 L35.3563496,6.33712121 Z" id="Fill-3" fill="#393B3C"></path>
                    <path d="M44.2532744,19.0442424 C44.2532744,14.9513636 47.5428759,11.0387879 52.1899398,11.0387879 C56.481,11.0387879 59.3047331,13.8398485 59.3047331,16.315303 C59.3047331,17.9666667 58.1965789,18.9710606 56.8021429,18.9710606 C55.5154586,18.9710606 54.4432218,17.8956061 54.4432218,16.6027273 C54.4432218,16.1371212 54.6576692,15.5983333 54.9428947,15.2748485 C54.6576692,14.880303 53.6921278,14.1983333 52.1550789,14.1983333 C50.366609,14.1983333 48.1503008,15.6693939 48.1503008,19.115303 C48.1503008,22.1306061 50.4384436,24.0333333 53.2273158,24.0333333 C55.1224812,24.0333333 56.767282,23.4945455 58.8050602,22.3819697 L58.4828609,25.9 C56.8021429,26.8693939 55.1932594,27.335 52.9051165,27.335 C47.9717707,27.335 44.2532744,24.1043939 44.2532744,19.0442424" id="Fill-4" fill="#393B3C"></path>
                    <path d="M61.7080226,22.9207576 C61.7080226,19.9775758 64.281391,18.1819697 67.9998872,18.1819697 C69.6087707,18.1819697 71.1109586,18.3972727 71.9687481,18.6136364 L71.9687481,17.3568182 C71.9687481,16.4234848 71.7543008,15.7054545 71.3613233,15.2027273 C70.7179812,14.3765152 69.6806053,14.0540909 68.2861692,14.0540909 C67.6069098,14.0540909 67.1061805,14.1612121 66.7491203,14.3054545 C66.8209549,14.5207576 66.8917331,14.880303 66.8917331,15.0945455 C66.8917331,16.2792424 65.962109,17.1415152 64.7831767,17.1415152 C63.6021316,17.1415152 62.7094812,16.315303 62.7094812,15.0234848 C62.7094812,13.0857576 64.6754248,11.0387879 68.9295113,11.0387879 C71.6106316,11.0387879 73.4339624,11.7928788 74.5431729,13.1568182 C75.3650451,14.1612121 75.7590789,15.5251515 75.7590789,17.1054545 L75.7590789,23.8180303 L78.0820827,23.8180303 L78.0820827,27.0486364 L72.0405827,27.0486364 L72.0405827,25.3262121 C70.7887594,26.4016667 68.8946504,27.335 66.7839812,27.335 C64.1028609,27.335 61.7080226,25.8639394 61.7080226,22.9207576 L61.7080226,22.9207576 Z M71.9687481,23.1 L71.9687481,20.6234848 C71.0750414,20.4081818 69.9668872,20.2639394 68.7509812,20.2639394 C66.8558158,20.2639394 65.7117444,21.1262121 65.7117444,22.5612121 C65.7117444,23.8180303 66.6413684,24.4989394 68.0358045,24.4989394 C69.4302406,24.4989394 70.7887594,23.9612121 71.9687481,23.1 L71.9687481,23.1 Z" id="Fill-5" fill="#393B3C"></path>
                    <path d="M80.0195038,25.3972727 L82.6657632,25.3972727 L82.6657632,2.42454545 L80.0195038,2.42454545 L80.0195038,0.773181818 L84.489094,0.773181818 L84.489094,25.3972727 L87.1702143,25.3972727 L87.1702143,27.0486364 L80.0195038,27.0486364 L80.0195038,25.3972727" id="Fill-6" fill="#3FA9F6"></path>
                    <path d="M91.1369624,34.2268182 C89.9569737,34.2268182 88.8129023,33.5809091 88.8129023,32.4322727 C88.8129023,31.6071212 89.3844098,31.0333333 90.1365602,31.0333333 C90.9584323,31.0333333 91.5299398,31.750303 91.7095263,32.4683333 C92.3528684,32.2180303 93.0321278,31.6071212 93.7832218,30.3863636 C94.1761992,29.7404545 94.6410113,28.8431818 95.1417406,27.8027273 L95.9276955,26.1513636 L90.1365602,13.6245455 L87.9910301,13.6245455 L87.9910301,11.9721212 L94.6410113,11.9721212 L94.6410113,13.6245455 L92.2091992,13.6245455 C92.2091992,13.6245455 96.8573195,24.1415152 96.8214023,24.1415152 L101.50544,13.6245455 L98.9669323,13.6245455 L98.9669323,11.9721212 L105.509162,11.9721212 L105.509162,13.6245455 L103.364688,13.6245455 L96.2139774,29.0934848 C95.7850827,29.9918182 95.3921053,30.7459091 94.9621541,31.4278788 C93.8180827,33.2224242 92.6391504,34.2268182 91.1369624,34.2268182" id="Fill-7" fill="#3FA9F6"></path>
                    <path d="M112.187665,14.9513636 C113.582102,13.1568182 115.870244,11.684697 117.979857,11.684697 C120.017635,11.684697 121.30432,12.4027273 122.019496,13.6245455 C122.520226,14.484697 122.734673,15.5622727 122.734673,16.8180303 L122.734673,25.3972727 L125.237263,25.3972727 L125.237263,27.0486364 L118.408752,27.0486364 L118.408752,25.3972727 L120.911342,25.3972727 L120.911342,17.0704545 C120.911342,16.1721212 120.804647,15.4540909 120.518365,14.880303 C120.017635,13.8748485 119.088011,13.4081818 117.693575,13.4081818 C115.549102,13.4081818 113.653936,14.7721212 112.2595,16.4956061 L112.2595,25.3972727 L114.76209,25.3972727 L114.76209,27.0486364 L107.933579,27.0486364 L107.933579,25.3972727 L110.436169,25.3972727 L110.436169,13.6245455 L107.933579,13.6245455 L107.933579,11.9721212 L112.187665,11.9721212 L112.187665,14.9513636" id="Fill-8" fill="#3FA9F6"></path>
                    <path d="M132.31297,14.9513636 C133.707406,13.1568182 135.995549,11.684697 138.105162,11.684697 C140.141883,11.684697 141.429624,12.4027273 142.144801,13.6245455 C142.644474,14.484697 142.859977,15.5622727 142.859977,16.8180303 L142.859977,25.3972727 L145.362568,25.3972727 L145.362568,27.0486364 L138.534056,27.0486364 L138.534056,25.3972727 L141.036647,25.3972727 L141.036647,17.0704545 C141.036647,16.1721212 140.928895,15.4540909 140.643669,14.880303 C140.141883,13.8748485 139.212259,13.4081818 137.817823,13.4081818 C135.67335,13.4081818 133.779241,14.7721212 132.384805,16.4956061 L132.384805,25.3972727 L134.887395,25.3972727 L134.887395,27.0486364 L128.057827,27.0486364 L128.057827,25.3972727 L130.561474,25.3972727 L130.561474,13.6245455 L128.057827,13.6245455 L128.057827,11.9721212 L132.31297,11.9721212 L132.31297,14.9513636" id="Fill-9" fill="#3FA9F6"></path>
                    <path d="M157.5005,13.1928788 C157.5005,13.6595455 157.178301,14.0540909 156.606793,14.0540909 C156.141981,14.0540909 155.713086,13.6956061 155.713086,13.0125758 L155.713086,12.8704545 C154.139064,12.9775758 152.781602,14.5207576 151.601613,16.4956061 L151.601613,26.3306061 L154.533098,26.3306061 L154.533098,27.0486364 L148.061647,27.0486364 L148.061647,26.3306061 L150.742767,26.3306061 L150.742767,12.9775758 L148.061647,12.9775758 L148.061647,12.2595455 L151.565695,12.2595455 L151.565695,15.5251515 C152.674906,13.6245455 154.390485,12.0442424 156.034229,12.0442424 C156.963853,12.0442424 157.5005,12.5830303 157.5005,13.1928788" id="Fill-10" fill="#393B3C"></path>
                    <path d="M158.997406,19.6540909 C158.997406,15.3830303 162.179256,12.0442424 166.397425,12.0442424 C170.687429,12.0442424 173.7985,15.3098485 173.7985,19.6540909 C173.7985,23.9251515 170.61665,27.2639394 166.397425,27.2639394 C162.107421,27.2639394 158.997406,23.9972727 158.997406,19.6540909 L158.997406,19.6540909 Z M172.904793,19.6540909 C172.904793,15.7775758 170.187756,12.7622727 166.397425,12.7622727 C162.60815,12.7622727 159.854139,15.7775758 159.854139,19.6540909 C159.854139,23.5306061 162.60815,26.5459091 166.397425,26.5459091 C170.187756,26.5459091 172.904793,23.5306061 172.904793,19.6540909 L172.904793,19.6540909 Z" id="Fill-11" fill="#393B3C"></path>
                    <path d="M176.770128,19.6540909 C176.770128,15.2748485 179.951977,12.0442424 184.027534,12.0442424 C186.208981,12.0442424 188.353455,13.0857576 189.747891,14.3765152 L189.747891,1.63439394 L186.637876,1.63439394 L186.637876,0.916363636 L190.60568,0.916363636 L190.60568,26.3306061 L193.287857,26.3306061 L193.287857,27.0486364 L189.783808,27.0486364 L189.783808,24.4278788 C188.353455,26.0431818 186.243842,27.2639394 183.847947,27.2639394 C179.773447,27.2639394 176.770128,24.0333333 176.770128,19.6540909 L176.770128,19.6540909 Z M189.747891,23.5656061 L189.747891,15.2027273 C188.353455,13.9109091 186.279759,12.7622727 184.027534,12.7622727 C180.380872,12.7622727 177.627917,15.7054545 177.627917,19.6540909 C177.627917,23.6387879 180.202342,26.5459091 183.884921,26.5459091 C186.315677,26.5459091 188.317538,25.2890909 189.747891,23.5656061 L189.747891,23.5656061 Z" id="Fill-12" fill="#393B3C"></path>
                    <path d="M205.268387,13.1928788 C205.268387,13.6595455 204.946188,14.0540909 204.37468,14.0540909 C203.909868,14.0540909 203.479917,13.6956061 203.479917,13.0125758 L203.479917,12.8704545 C201.908008,12.9775758 200.549489,14.5207576 199.3695,16.4956061 L199.3695,26.3306061 L202.300985,26.3306061 L202.300985,27.0486364 L195.829534,27.0486364 L195.829534,26.3306061 L198.510654,26.3306061 L198.510654,12.9775758 L195.829534,12.9775758 L195.829534,12.2595455 L199.333583,12.2595455 L199.333583,15.5251515 C200.441737,13.6245455 202.157316,12.0442424 203.802117,12.0442424 C204.731741,12.0442424 205.268387,12.5830303 205.268387,13.1928788" id="Fill-13" fill="#393B3C"></path>
                    <path d="M207.737173,26.3306061 L210.632741,26.3306061 L210.632741,12.9775758 L207.737173,12.9775758 L207.737173,12.2595455 L211.49053,12.2595455 L211.49053,26.3306061 L214.387154,26.3306061 L214.387154,27.0486364 L207.737173,27.0486364 L207.737173,26.3306061 L207.737173,26.3306061 Z M209.846786,5.83439394 C209.846786,5.29560606 210.27568,4.865 210.77641,4.865 C211.312,4.865 211.704977,5.29560606 211.704977,5.83439394 C211.704977,6.37212121 211.312,6.80378788 210.77641,6.80378788 C210.27568,6.80378788 209.846786,6.37212121 209.846786,5.83439394 L209.846786,5.83439394 Z" id="Fill-14" fill="#393B3C"></path>
                    <path d="M229.701654,28.1601515 C229.701654,29.8836364 229.308677,31.2115152 228.449831,32.1809091 C227.341677,33.5087879 225.59018,34.2268182 223.158368,34.2268182 C220.691695,34.2268182 218.940199,33.4016667 218.153188,32.4683333 C217.796128,32.0737879 217.616541,31.6071212 217.616541,31.2115152 C217.616541,30.5656061 218.045436,30.1710606 218.546165,30.1710606 C219.047951,30.1710606 219.440929,30.5656061 219.440929,31.0683333 C219.440929,31.4278788 219.190564,31.8224242 218.79653,31.9656061 C219.369094,32.754697 220.906143,33.5087879 223.195342,33.5087879 C225.339816,33.5087879 226.842004,32.8628788 227.806489,31.6792424 C228.521665,30.8169697 228.842808,29.7054545 228.842808,28.1972727 L228.842808,24.2836364 C227.484289,25.8278788 225.59018,27.084697 223.08759,27.084697 C218.97506,27.084697 216.043575,23.8540909 216.043575,19.5819697 C216.043575,15.3098485 219.154647,12.0442424 223.26612,12.0442424 C225.518346,12.0442424 227.520207,13.1568182 228.878726,14.4136364 L228.878726,12.2595455 L232.382774,12.2595455 L232.382774,12.9775758 L229.701654,12.9775758 L229.701654,28.1601515 L229.701654,28.1601515 Z M216.901365,19.5819697 C216.901365,23.4584848 219.369094,26.4016667 223.122451,26.4016667 C225.625041,26.4016667 227.484289,25.0737879 228.842808,23.4234848 L228.842808,15.2748485 C227.520207,13.9459091 225.59018,12.7622727 223.26612,12.7622727 C219.547624,12.7622727 216.901365,15.7054545 216.901365,19.5819697 L216.901365,19.5819697 Z" id="Fill-15" fill="#393B3C"></path>
                    <path d="M238.092568,25.2530303 C237.627756,24.4278788 237.485143,23.350303 237.485143,22.1306061 L237.485143,12.9775758 L234.802966,12.9775758 L234.802966,12.2595455 L238.341876,12.2595455 L238.341876,22.0595455 C238.341876,23.1710606 238.485545,24.1043939 238.843662,24.8224242 C239.379252,25.9 240.415571,26.5098485 242.025511,26.5098485 C244.24182,26.5098485 246.315515,24.8224242 247.852564,22.8486364 L247.852564,12.9775758 L245.206305,12.9775758 L245.206305,12.2595455 L248.71141,12.2595455 L248.71141,26.3306061 L251.39253,26.3306061 L251.39253,27.0486364 L247.888481,27.0486364 L247.888481,23.7098485 C246.529962,25.4683333 244.42035,27.2639394 241.917759,27.2639394 C239.987733,27.2639394 238.771827,26.4737879 238.092568,25.2530303" id="Fill-16" fill="#393B3C"></path>
                    <path d="M254.094778,19.5459091 C254.094778,24.0693939 256.776955,26.5459091 260.708842,26.5459091 C262.638868,26.5459091 264.498117,25.8639394 265.892553,24.8224242 L265.821774,25.684697 C264.498117,26.6169697 262.710703,27.2639394 260.637008,27.2639394 C256.311086,27.2639394 253.236989,24.3918182 253.236989,19.5459091 C253.236989,15.2027273 256.418838,12.0442424 260.101417,12.0442424 C264.283669,12.0442424 266.643647,15.3098485 266.643647,18.9710606 C266.643647,19.1874242 266.607729,19.4027273 266.571812,19.5459091 L254.094778,19.5459091 L254.094778,19.5459091 Z M254.094778,18.8289394 L265.785857,18.8289394 C265.714023,15.5983333 263.78294,12.7622727 260.0655,12.7622727 C256.954429,12.7622727 254.38106,15.3098485 254.094778,18.8289394 L254.094778,18.8289394 Z" id="Fill-17" fill="#393B3C"></path>
                    <path d="M268.837771,26.6540909 L279.13547,12.9775758 L270.304041,12.9775758 L270.304041,16.1 L269.446252,16.1 L269.446252,12.2595455 L280.279541,12.2595455 L280.279541,12.6540909 L269.945925,26.3306061 L279.600282,26.3306061 L279.600282,23.2431818 L280.422154,23.2431818 L280.422154,27.0486364 L268.837771,27.0486364 L268.837771,26.6540909" id="Fill-18" fill="#393B3C"></path>
                </g>
            </g>
        </g>
    </g>
</svg>